<?xml version="1.0" encoding="UTF-8"?><svg id="Layer_1" xmlns="http://www.w3.org/2000/svg" viewBox="0 0 200 200"><defs><style>.cls-1,.cls-2{fill:#e42320;}.cls-2{fill-rule:evenodd;}</style></defs><path class="cls-1" d="m116.52,94.18l10.76-1.13c5.54-.58,11.05,2.03,11.21,6.33.33,8.75-4.1,7.94-9.65,8.52l-6.08.64c-.73-3.1-1.92-6.29-3.63-10.36-.66-1.58-1.55-2.91-2.62-4Z"/><path class="cls-1" d="m123.02,109.75l4.26-.45c5.54-.58,11.25-.28,11.21,6.33-.04,7.79-4.1,7.24-9.65,7.83,0,0-19.95,3.16-19.95,2.94l-6.02-11.82c1.44-.44,2.03.37,3.62,1.22,1.66.89,4.84,3.68,5.98,4.12,4.39,1.67,9.74,1.17,11.09-5.04l.04-.2v-.21c-.09-1.64-.28-3.18-.58-4.72Z"/><path class="cls-1" d="m127.27,125.06c5.54-.59,10.84-.45,11.21,6.33.33,6.13-4.1,7.24-9.65,7.83l-13.64,1.43c-1.24.13-2.45.1-3.61-.07-.43-5.94-1.92-9.45-2.27-12.29,1.6-.97,17.95-3.22,17.95-3.22Z"/><path class="cls-1" d="m128.84,155.66l-1.07-.63-16.06-7.24c.05-1.87.03-3.6-.04-5.21.64-.16,1.3-.27,1.97-.34l13.64-1.44c5.54-.58,11.17.54,11.21,6.33.04,5.38-4.1,7.94-9.65,8.52Z"/><g><g><path class="cls-2" d="m116.9,26.42l.4.68-.62.47c-16,13.23-30.68.45-30.68.45l.48-.75c4.95-7.77,23.63-12.43,30.43-.85Z"/><path class="cls-2" d="m117.3,27.1c-1.93,1.65-14.95,13.01-31.3.92,5.05-8.99,24.79-13.24,31.3-.92Z"/><path class="cls-2" d="m117.82,29.53s1.71,12.75-8.87,19.24c-7.12,4.37-16.28,5.2-21.99-1.47-5.23-6.12-2.34-16.28-2.34-16.28,16.01,13.25,33.2-1.48,33.2-1.48Z"/><path class="cls-2" d="m81.63,44.34s3.75,8.98,13.64,10.2c6.01.75,8.73.25,8.73.25l-1.76,1.82c-5.51,5.72-12.03,7.53-19.7,5.46-7.94-2.14-14.09-7.37-14.56-15.85-.29-5.32.45-11.5,5.14-16.4l1.29-1.35.23,1.85c1.27,10.02,2.5,14.44,7,14.02Z"/><path class="cls-2" d="m129.05,11.2c-3.6-3.61-6.9-5.89-12.24-5.71-6.11.22-9.56,3.68-12.87,8.39l-.63.9c-3.02-2.87-5.87-3.83-11.49-4.25-6.84-.51-13.9.49-15.47,10.24-1.68,10.44,3.48,21.92,3.48,21.92,0,0-.32-27.31,24.35-24.73l2.34.31-1.57-1.77c-.39-.44-.76-.84-1.14-1.22h.84c18.86.11,19.18,18.14,12.02,29.55l-.99,1.58s11.6-4.27,17.57-12.51c7.59-10.49,2.32-16.18-4.2-22.7Z"/></g><path class="cls-2" d="m104.51,126.71s-3.82,11.64-8.42,15.75c0,0,11.27-18.68,3.07-31.72,0,0,3.71-.52,4.52-1.28,3.47,7,16.25,14.67,18.33,5.08-.25-5.08-1.58-9.16-4.33-15.74-1.47-3.52-4.22-5.63-7.58-6.45l-1.05-10.55c.6.89,1.52,1.74,2.9,2.43,8.75,4.39,17.39-1.53,28.59-9.15-8.56-8.45-28.78-12.99-32.1.49l-.82-8.3c1.48-.12,3.04-.33,4.76-.63,8-1.43,14.44-2.6,19.33-9.64,4.19-6.04,5.15-11.55,3.25-18.65l-.37-1.37-1.07.93s-13.4,11.6-25.96,14.63l-.43.1-.18.4c-2.53,5.83-12.44,10.88-12.53,10.93l-1.98,1,2.13.64c3.52,1.05,6.39,1.6,9.33,1.72l.56,7.28c-5.87-11.21-24.25-4.07-31.31,5.17,12.15,5.99,21.54,10.65,29.58,5.09,1.1-.76,1.84-1.59,2.33-2.42l.73,9.52c-6.14.07-11.34.91-19.09,4-3.46,1.38-5.35,3.4-6.58,6.91-4,11.42-5.08,22.84-6.84,33.5l-14.75,15.76,15.39,42.19,26.03-26.78c1.79.03,2.81-.02,4.58-.25,9.21-1.18,14.96-4.41,20.76-11.67l-15.17-6.83c.5-12.92-2.08-19.01-5.58-22.09Z"/></g></svg>